# xmcd
#
# Track frame offsets: 
#        150
#        14757
#        30527
#        47352
#        66377
#        80280
#        93842
#        111187
#        134452
#        151512
#        166567
#        182552
#
# Disc length: 2782 seconds
#
# Revision: 4
# Processed by: cddbd v1.5.2PL0 Copyright (c) Steve Scherf et al.
# Submitted via: ExactAudioCopy v1.3
#
DISCID=860adc0c
DTITLE=Duke Robillard - Dangerous Place
DYEAR=1997
DGENRE=Blues
TTITLE0=Had To Be Your Man
TTITLE1=Going Straight
TTITLE2=Dangerous Place
TTITLE3=Don't Get Me Shook Up
TTITLE4=Take My Word For It
TTITLE5=Can't Remember To Forget
TTITLE6=Duke's Advice
TTITLE7=Nothing Like You (Where I Come From)
TTITLE8=I May Be Ugly (But I Sure Know How To Cook)
TTITLE9=All Over But The Paying
TTITLE10=No Time
TTITLE11=Black Negligee
EXTD=
EXTT0=
EXTT1=
EXTT2=
EXTT3=
EXTT4=
EXTT5=
EXTT6=
EXTT7=
EXTT8=
EXTT9=
EXTT10=
EXTT11=
PLAYORDER=
